<?xml version="1.0" encoding="utf-8"?>
<!-- Generator: Adobe Illustrator 26.0.3, SVG Export Plug-In . SVG Version: 6.00 Build 0)  -->
<svg version="1.1" baseProfile="basic" xmlns="http://www.w3.org/2000/svg" xmlns:xlink="http://www.w3.org/1999/xlink" x="0px"
	 y="0px" viewBox="0 0 4000 4000" xml:space="preserve">
<g id="Layer_1">
	<path fill="#B2A962" d="M430.9,2008.1c1.5,0.6,2.9,1.3,4.4,2c0.1,0.1,0.3,0.1,0.4,0.2c81.4,37.4,148.3,82.4,203.7,158
		c53.7,69.4,74.6,169.2,46.7,254.2c-33.9,103-94.2,198.1-110.7,308.4c-14.3,96-1.5,194,57.8,274.4
		c64.5,87.5,144.8,110.9,247.7,126.5c5.7,52.8,11.2,98.6,41.6,145.3c86,131.7,279.2,166.8,423,188.4c44.1,5.9,87,8,131.3,14.1
		c161,22.2,350.9,69.2,456.4,202.9c25.3,31.9,42.7,73.1,64.8,108.1c17.1-25.1,25.7-47.1,39.6-73.3c74.2-139.7,262.6-201,409.3-224.4
		c186.9-29.8,393.4-22.6,554.6-136.9c81.3-57.6,105.6-132.7,120.5-226.3c40.5-1.1,87.4-14.8,123.9-30.6
		c68.7-29.7,132.8-98.4,157.8-169.4c39-111.2,14.6-239.3-31.5-345c-13.2-30.3-28.8-58.5-42.5-88.6c-36.7-81.2-46.5-170.2-13.9-254.3
		c34.8-89.6,118.5-166.1,201.9-210.7c9-4.8,18.3-9.2,27.6-13.4c13.3-5.9,26.8-11.4,40.1-17.3c-13.4-5.9-26.9-11.5-40.3-17.6
		c-9.3-4.2-18.5-8.6-27.5-13.4c-83.4-44.6-167.2-121.1-201.9-210.7c-32.6-84.1-22.8-173.1,13.9-254.3c13.6-30.1,29.2-58.3,42.5-88.6
		c46-105.7,70.5-233.9,31.5-345c-25-71-89.1-139.7-157.8-169.4c-36.5-15.8-83.4-29.5-123.9-30.6c-14.8-93.6-39.2-168.7-120.5-226.3
		c-161.2-114.3-367.8-107.1-554.6-136.9c-146.7-23.4-335.1-84.7-409.3-224.4c-13.9-26.2-22.5-48.2-39.6-73.3
		c-22.2,35-39.6,76.2-64.8,108.1c-105.4,133.6-295.4,180.7-456.4,202.9c-44.3,6.1-87.2,8.2-131.3,14.1
		c-143.8,21.6-337,56.7-423,188.4c-30.4,46.7-35.9,92.5-41.6,145.3C778,884,697.7,907.4,633.2,994.8
		c-59.3,80.3-72.1,178.3-57.8,274.4c16.4,110.3,76.8,205.4,110.7,308.4c27.9,84.9,7,184.7-46.7,254.2
		c-59.2,80.7-131.5,128.3-220.5,167.4c0,0,0,0,0,0c-1.4,0.6-2.8,1.2-4.2,1.9 M3273.1,2349.7c1.1,100.4,47,169.1,84.1,257.4
		c51.7,122.5,72,285.4-20.3,394c-68.4,82-135.7,98.9-236.8,109.9c-2.7,50.5-12.4,106.3-39.1,150.8
		c-116.6,184.2-382.5,181.8-574.8,207.8c-156.3,21.1-331.5,64.6-439.8,188.5c-19.3,22.1-35,52.8-49.4,78.2
		c-92.2-186.8-329.6-247-519.1-272.9c-73.6-10.1-146.8-13.2-220-28.3c-135.9-28.1-295.2-76.2-344.5-222.3
		c-11.3-33.4-11.4-65.4-12.9-100.4c-73.5-4.4-132.5-20.2-192.8-62.4c-57-46-91.1-97.2-106.7-169c-24.1-110.9,8.1-222.5,52.9-323.5
		c19-43.8,41.7-88.4,54.6-134.4c44.7-159.5-47.9-303.2-178.7-387c-20.4-13.1-43.8-24.7-65.4-36c-0.1,0-0.1-0.1-0.2-0.1
		c21.7-11.4,45.1-22.7,65.6-35.9c130.8-83.8,223.4-227.5,178.7-387c-12.9-45.9-35.6-90.6-54.6-134.4c-44.8-101-77-212.6-52.9-323.5
		c15.6-71.9,49.7-123,106.7-169c60.3-42.2,119.3-58,192.8-62.4c1.5-35,1.6-67,12.9-100.4C962.7,641.2,1122,593.1,1257.9,565
		c73.2-15.1,146.4-18.2,220-28.3c189.5-25.9,426.9-86.2,519.1-272.9c14.4,25.4,30.2,56.1,49.4,78.2
		c108.3,123.8,283.5,167.3,439.8,188.5c192.3,26,458.2,23.7,574.8,207.8c26.7,44.5,36.4,100.3,39.1,150.8
		c101.1,11,168.4,27.9,236.8,109.9c92.3,108.6,72,271.4,20.3,394c-37.1,88.2-83,156.9-84.1,257.4
		c-1.8,155.4,121.8,291.6,260.6,349.7C3394.9,2058.1,3271.4,2194.3,3273.1,2349.7z"/>
	<path fill="#B2A962" d="M561.8,2007.5c1.3,0.6,2.7,1.2,4,1.8c0.1,0.1,0.2,0.1,0.4,0.2c74.6,34.3,135.9,75.5,186.7,144.8
		c49.2,63.6,68.4,155.1,42.8,233c-31.1,94.4-86.4,181.5-101.4,282.6c-13.1,88-1.4,177.8,53,251.5c59.2,80.2,132.7,101.6,227,115.9
		c5.3,48.4,10.2,90.3,38.2,133.1c78.8,120.7,255.9,152.9,387.7,172.7c40.4,5.4,79.7,7.3,120.3,12.9
		c147.5,20.3,321.7,63.5,418.3,185.9c23.2,29.2,39.1,67,59.4,99c15.7-23,23.5-43.1,36.3-67.2c68-128.1,240.7-184.2,375.1-205.7
		c171.3-27.3,360.6-20.8,508.4-125.5c74.5-52.8,96.8-121.6,110.4-207.4c37.1-1,80.1-13.6,113.6-28.1c63-27.2,121.7-90.2,144.6-155.3
		c35.7-101.9,13.3-219.3-28.8-316.2c-12.1-27.8-26.4-53.7-38.9-81.2c-33.7-74.4-42.6-156-12.7-233
		c31.9-82.2,108.6-152.3,185.1-193.2c8.3-4.4,16.7-8.4,25.3-12.2c12.2-5.4,24.5-10.5,36.8-15.8c-12.3-5.4-24.7-10.6-36.9-16.1
		c-8.5-3.9-17-7.9-25.2-12.3c-76.5-40.9-153.2-111-185.1-193.2c-29.9-77.1-20.9-158.6,12.7-233c12.5-27.6,26.8-53.4,38.9-81.2
		c42.2-96.9,64.6-214.3,28.8-316.2c-22.9-65.1-81.6-128.1-144.6-155.3c-33.5-14.5-76.5-27-113.6-28.1
		c-13.6-85.8-35.9-154.6-110.4-207.4c-147.8-104.7-337.1-98.2-508.4-125.5c-134.4-21.4-307.1-77.6-375.1-205.7
		c-12.7-24-20.6-44.2-36.3-67.2c-20.3,32-36.3,69.8-59.4,99c-96.6,122.5-270.8,165.6-418.3,185.9c-40.6,5.6-79.9,7.5-120.3,12.9
		c-131.8,19.8-308.9,51.9-387.7,172.7c-27.9,42.8-32.9,84.7-38.2,133.1c-94.3,14.3-167.8,35.7-227,115.9
		c-54.3,73.6-66.1,163.5-53,251.5c15.1,101.1,70.4,188.3,101.4,282.6c25.6,77.9,6.4,169.3-42.8,233
		c-54.2,74-120.5,117.6-202.1,153.4c0,0,0,0,0,0c-1.3,0.6-2.6,1.1-3.9,1.7 M3166.9,2320.5c1,92.1,43.1,155,77.1,235.9
		c47.4,112.3,66,261.5-18.6,361.1c-62.7,75.2-124.4,90.7-217,100.8c-2.5,46.3-11.4,97.4-35.8,138.2
		c-106.9,168.8-350.6,166.6-526.9,190.5c-143.3,19.4-303.8,59.2-403.1,172.8c-17.7,20.2-32.1,48.4-45.3,71.7
		c-84.5-171.2-302.1-226.4-475.8-250.2c-67.4-9.2-134.5-12.1-201.6-25.9c-124.5-25.7-270.6-69.8-315.7-203.8
		c-10.3-30.7-10.4-59.9-11.8-92.1c-67.3-4-121.4-18.5-176.7-57.2c-52.3-42.2-83.5-89-97.8-154.9c-22.1-101.6,7.4-203.9,48.5-296.5
		c17.4-40.1,38.2-81,50-123.1c41-146.2-43.9-277.9-163.8-354.7c-18.7-12-40.1-22.6-60-33c-0.1,0-0.1-0.1-0.1-0.1
		c19.9-10.4,41.3-20.8,60.1-32.9c119.9-76.8,204.8-208.5,163.8-354.7c-11.8-42.1-32.6-83-50-123.1c-41.1-92.6-70.6-194.9-48.5-296.5
		c14.3-65.9,45.6-112.7,97.8-154.9c55.3-38.7,109.4-53.1,176.7-57.2c1.4-32.1,1.5-61.4,11.8-92.1c45.1-133.9,191.2-178,315.7-203.8
		c67.1-13.9,134.2-16.7,201.6-25.9c173.7-23.8,391.3-79,475.8-250.2c13.2,23.3,27.6,51.4,45.3,71.7
		c99.3,113.5,259.8,153.4,403.1,172.8c176.3,23.9,420,21.7,526.9,190.5c24.5,40.8,33.3,91.9,35.8,138.2
		c92.7,10.1,154.3,25.6,217,100.8c84.6,99.6,66,248.8,18.6,361.1c-34,80.9-76,143.8-77.1,235.9c-1.6,142.4,111.6,267.2,238.8,320.5
		C3278.5,2053.3,3165.3,2178.1,3166.9,2320.5z"/>
	<g>
		<g>
			<path fill="#194E36" d="M2591.4,1801.5c-9.7,22.6-23.9,46.1-29.6,70.5c-7,35.7-6.7,78-6.3,115.3l-7.7,106.4h-866.6v-107.2
				c-1.4-38.4-0.9-81-1.4-119.6c-5.5-3.3-14.2-7.7-17.3-13.2c-4.8-8.6-1-21-4.5-30.9c-5.6-15.9-12.4-31-17.9-46.8
				c-14.4-41.1-17.9-76-19.4-118.7c-6.1-169.5,65.5-274.7,203.5-364.6c47.4-30.8,101.8-55.8,150.1-85.8
				c35.6-22.1,81.4-43.6,108.2-76c11.8-14.2,16.3-26.2,21.6-42.1c-13.8-5.5-23.5-18.9-23.5-34.6c0-13.7,7.5-25.8,18.5-32.2v-61.5
				c-44.4-25.1,47.6,17.3,36.2,14.5v46.3c11.7,6.3,19.7,18.6,19.7,32.9c0,16.1-10.2,29.8-24.5,35c25.4,74.6,129.8,115.7,193.5,155.7
				c76.3,47.9,161.2,81,217,156.7C2631.5,1514.6,2647.2,1669.2,2591.4,1801.5z"/>
			<path fill="#194E36" d="M2555.3,1987.2c-1.8-0.6-3.7-1.2-5.5-1.9C2552.9,1986.4,2554.8,1987,2555.3,1987.2z"/>
			<path fill="#194E36" d="M1676.2,1989.8c1.7-1.1,3.3-2.2,5-3.3v1.6C1679.5,1988.7,1677.9,1989.3,1676.2,1989.8z"/>
			<path fill="#FFFFFF" d="M2109.6,1157.9c4.6,14.2,0,146.6-0.1,170.1l-0.6,397.9c-26.9-0.5-62,2.2-89,3.7l-5-17.7
				c-18.8-71.3-20.6-123.7-20.1-195.6C1996,1377.8,2034.4,1272.3,2109.6,1157.9z"/>
			<path fill="#FFFFFF" d="M2124.3,1159.6c5.8,4.5,12.2,12.6,16.3,18.8c107.4,158.5,102.9,354.8,72.7,534
				c-0.9,6.9-0.8,11.8-4.8,17.3c-8.3,1.1-69.2-2.8-86.3-2.8l-0.8-369.2L2124.3,1159.6z"/>
			<path fill="#FFFFFF" d="M2155,1170.7c41.2,19.8,108.5,101.9,131.4,142c73.6,128.3,64.2,290,28.9,427.5
				c-4.3,2.9-81.6-7.3-92.7-8.4c12.9-50.7,16.7-107,19.9-158.8C2253,1405,2230.9,1318.3,2155,1170.7z"/>
			<path fill="#FFFFFF" d="M2085.5,1165.9l0.9,2.3c-103.5,145.9-133.6,393.1-78,562.2c-29.8,3-63.2,7-92.7,11.7
				c-27.7-59.1-33-211.4-23.9-278.9C1909.6,1333.4,1986.1,1242.6,2085.5,1165.9z"/>
			<path fill="#FFFFFF" d="M1999,1223l1,1.7c-45.1,51.7-86.4,99.9-106.5,167.9c-25.1,85-22.9,179.3-10.9,266.4
				c3.9,27.5,12.5,57.8,19.5,84.8c-28.4,5-57.2,8.6-85.9,13.7c-0.5-0.8-2.2-3.4-2.4-4c-34.4-96.1-40.3-241.9-4.4-336.8
				c28.9-76.4,78-128.1,144.5-167.6C1969.9,1239.6,1983.4,1230.1,1999,1223z"/>
			<path fill="#FFFFFF" d="M2239.3,1225.6c9.2,2.5,65.6,39.4,76.3,47.3c139.5,103,151.5,331.8,98.6,482.9
				c-4.1,2.7-77.6-10.7-87.7-12.3c12.6-38.4,19.8-67.7,23.2-108.7c9.4-112.8,7-223.2-49-325
				C2284.6,1280.6,2260.4,1251.3,2239.3,1225.6z"/>
			<path fill="#FFFFFF" d="M2359,1295.5c0.8,0.3,3.1,0.8,3.8,1.1c68,34.7,113.4,78.1,143.4,148.9c46,108.7,42.1,219.8-0.2,328.4
				l-0.8,0.9c-7,2.3-68.1-11.6-79-13.7c14-42.3,24.1-85.4,27.1-130.7c5.8-89.8-2.6-193-46.4-273
				C2396.3,1338.3,2373.3,1312.3,2359,1295.5z"/>
			<path fill="#FFFFFF" d="M1870.3,1296.3l0.5,0.3c0,3.3-9.6,12.2-12.4,15.3c-104.8,112.8-102.7,307.2-55.6,447.3
				c-24.4,5.4-48.7,11.3-73,17.2c-5.8-7.1-13.2-38.1-15.2-47.5c-28.4-129.3-22.4-274.6,77-373.1
				C1816.3,1331.1,1840.9,1315.2,1870.3,1296.3z"/>
			<path fill="#FFFFFF" d="M2050,1746.6c144.4-8.1,376.4,19.2,513.5,66.5l-8.8,20.7c-133.8-32.5-221.6-47.9-358.5-55
				c-193.9-9.1-325.9,8.4-511.7,56.5l-3.4-27.4C1763.5,1776.5,1962.1,1750.4,2050,1746.6z"/>
			<path fill="#FFFFFF" d="M2470.8,1361.4c8.2,4.2,16.5,12.2,23.2,18.6c113.6,108.1,137.1,277.7,76.3,418
				c-17.8-6.1-34.2-10.5-52.2-15.4c44.8-120.2,48.1-255.2-13.5-370.8C2495,1393.8,2482.8,1377.7,2470.8,1361.4z"/>
			<path fill="#FFFFFF" d="M1740.2,1397.1c-0.3,3.8-2,6.1-3.9,9.4c-68.9,112.4-56.5,252.8-20.7,373.8c-13.9,3.1-28.7,7.4-42.5,11.1
				c-1.3,0.4-3.1-0.1-4.6-0.4c-4.5-7.5-7.6-23.1-9.7-32.1C1628.8,1630.7,1646.5,1492.6,1740.2,1397.1z"/>
			<path fill="#FFFFFF" d="M2217.2,1808.5c-21.2-2.2-42.4-4.6-63.7-5.4l-0.3,236.1h64.2L2217.2,1808.5z"/>
			<path fill="#FFFFFF" d="M1967.9,1807.6c-0.1-0.2-0.2-0.2-0.3-0.4c-20.1,3.4-38.1,6.9-58.3,12.2c-0.1,27.2-1.9,158-0.1,219.9h59.9
				C1969.9,1977.8,1972.3,1823.3,1967.9,1807.6z"/>
			<path fill="#FFFFFF" d="M2089.1,1802.9l-23.7,1.2c-13,0.8-26,2-38.9,2.4c-0.1,77-0.5,155.7-0.1,232.8h62.9
				C2089.1,1960.5,2088.7,1881.6,2089.1,1802.9z"/>
			<path fill="#FFFFFF" d="M2329.9,1823.4c-19-4.6-38.1-8.9-57.1-13.9c-0.2,75.9-0.8,153.7-0.3,229.7h56.8L2329.9,1823.4z"/>
			<path fill="#FFFFFF" d="M2443.7,1843.8c-19-7.5-36.4-13.3-55.4-19.2c-0.7,71-1.6,143.6-1.7,214.7h57.1V1843.8z"/>
			<path fill="#FFFFFF" d="M1850.9,1824.1l-4.6-0.7c-14.4,5.3-30.7,10.5-44.9,17.3c-0.1,43.8-1.2,138.4-0.3,198.7h54.9
				C1855.9,1978.1,1855.7,1843.5,1850.9,1824.1z"/>
			<path fill="#FFFFFF" d="M1744.5,1843.4c-12.3,5-26.6,11.4-38.9,14.7c0,21.5-0.7,122.6,0.1,181.2h42.6
				C1748.5,1971.5,1748.4,1850.4,1744.5,1843.4z"/>
			<path fill="#FFFFFF" d="M2541.2,1862.2c-13.2-5.8-27-12.3-40.3-16.5c-0.9,64.4-0.7,129.2-0.6,193.7h36.9
				C2537.4,1980.3,2538,1914.6,2541.2,1862.2z"/>
			<circle fill="#FFFFFF" cx="2116.6" cy="1052.3" r="23.6"/>
			<g>
				<path fill="#FFFFFF" d="M2260.1,946.3c-25,26.7-60.2,42.2-97.1,42.2c-73.2,0-132.8-59.6-132.8-132.8c0-36.9,15.5-72.1,42.2-97.1
					c-10.9,20.1-16.7,42.6-16.7,65.9c0,76.3,62.1,138.4,138.5,138.4C2217.4,962.9,2239.9,957.2,2260.1,946.3z"/>
				<path fill="#194E36" d="M2271.6,932.4c-22.7,16.3-49.4,24.9-77.4,24.9c-73.2,0-132.8-59.6-132.8-132.8c0-28,8.6-54.8,24.9-77.4
					l10-14l-14,10c-36.2,26-57.8,68-57.8,112.5c0,76.3,62.1,138.4,138.5,138.4c44.5,0,86.5-21.6,112.5-57.8l10-14L2271.6,932.4z
					 M2163,988.4c-73.2,0-132.8-59.6-132.8-132.8c0-36.9,15.5-72.1,42.2-97.1c-10.9,20.1-16.7,42.6-16.7,65.9
					c0,76.3,62.1,138.4,138.5,138.4c23.3,0,45.8-5.7,65.9-16.7C2235.1,972.9,2199.9,988.4,2163,988.4z"/>
			</g>
		</g>
		<g>
			<path fill="#194E36" d="M1809.4,1719.9c31.3,1,109,33.9,139.2,47.9c104.4,48.4,242.4,171.8,280.7,281.4
				c31.2-18.9,68.1-35.1,101.5-50.5c106.1-49.1,218.3-84.4,332-110.9c34.9-8.1,69.2-16.2,103.8-24.6c22.3-5.4,44.5-11.1,66.7-17.1
				c13.9-3.8,36.5-11.1,50.1-12.3c18.3,13.4,40.5,36.3,58.2,51.5c25.2,21.6,55.8,43.3,78.9,66.6c36.9-10.9,86,8.4,83.7,53.7
				c-0.6,12.2-10.6,27.4-21.4,33.5c-25.6,14.6-52.4,28-78.6,41.8l-173.1,91.3l-544.2,284.4c7.6,9.6,39.4,37.6,49.5,46.8l97.7,88.4
				l254.2,231.4l96.3,86.6c26.6,23.5,53.2,45.8,78.9,70.4c-28.9,13.9-58,27.3-87.4,40.3l-92.4-22.6c-6.9-1.7-43-10.1-46.2-12.7
				c-51-41.9-98.5-92.2-149.2-134.7c-29.7,12-74.5,35.9-105,50.5c-40,19-80,38.2-119.7,57.7c-13.5,6.7-47.5,23.2-58.4,32.3
				c78.9,72.4,157.3,145.3,235.1,218.9l8.6,8c-19.8,12.8-67.7,38.5-88.9,48.8c-11.4-3.2-26-6-37.9-8.8l-82.9-19.6
				c-55-12.6-43.4-6.8-84.8-45.8l-65.3-61.4c-105.4-98.4-208.9-199.5-315.8-296.3c-30.6-27.7-64.2-64.4-95.3-89.8
				c-2.6,2.2-5.3,4.2-8.2,6.1c-39.7,26.4-107.9,55.4-150.5,80.6c-2.8,1.7-85.8,4.2-93.6,2.6c-112,57.8-225.4,127.7-338,182.8
				c-17.8-2.5-45.7-9.4-63.7-13.4c-32.4-7.2-64.8-13.9-97.5-19.9c18.2-12.9,49.5-29.5,69.5-40.8c42.1-23.9,84.4-47.5,126.8-70.9
				l202.9-113.4c71.4-39.4,142.4-77.5,212.9-118.8c-7.3-6.6-15.6-12.8-23.3-19.2c-33.9-28.3-69.1-55-103.2-83l-351.2-287.3
				l-88.9-73.5c-15-12.2-43-33.8-56.1-46.9c-6.4-6.4-11.5-14.1-14.9-22.5c-7.3-17.4-7.4-32.2-0.5-50
				c20.4-52.8,111.7-50.6,157.6-71.1c22.9-8.8,60.6-60.4,81.3-66.9c46.1-14.6,98.4-29.4,144.6-43.2l370.5-109.6
				c28.6-8.6,57.2-17.2,85.9-25.5C1763.4,1734.8,1787.5,1728.4,1809.4,1719.9z"/>
			<path fill="#FFFFFF" d="M1801.7,1738.4c11.3-2,100.7,34.1,117.7,41.8c110.1,50.3,247.3,165.9,289.5,281.9
				c-8.3,4.9-17,10.1-25.5,14.6c-34.3,18-65.2,40.4-97.9,61.2l-107.7,67.1c-42.1,26.8-80.9,59.4-128,77.6
				c-54,20.9-109.8,43-165.4,59c-10.8-12.6-26.9-28.3-38.8-40.4c-33-33.8-66.9-66.8-101.5-98.9c-73.2-69-137.3-134.5-222.5-189.6
				c7.3-25-5.2-36.8-24.9-49.8l293.2-83.7c86-24.9,170.2-50.6,256.9-74.4c80.1,49.2,169.7,117.3,232.1,188
				c24.2,27.4,44,61.1,64.3,91.1c4.1,1.1,2.4,1.5,5.4,0c2-6.5-11.5-28.8-15.7-35.6c-51-83.5-129.9-152.5-209.3-207.4l-48.6-32.9
				c-6.8-4.6-17.4-9.4-19.5-17.1l-0.6-2.2c-4.1-1.1-10.7,5.4-19.6,7.7c-37.8,9.7-75.2,21.6-112.6,32.2l-294.1,84.6l-89.3,25.9
				c-23.2,6.8-45.6,13.9-69.5,17.8c12.8,10.2,35.2,20.7,41.1,34.3c4,9.2-0.1,15.5-3.9,23.8c49.3,27.7,108.2,82.1,149.7,120.5
				c55.5,51.4,110.3,103.6,164.4,156.7c20.9,20.6,40.4,42.7,61.5,63.1c15-4.4,29.7-10.4,44.6-15.3c35.5-11.6,69.4-24.1,104.2-37.6
				c-23,20.5-48.8,39.3-71.1,61.2c-26,25.5-46.5,54-65.3,84.9c-42.7-43-86.3-85-130.8-126.1l-191-178.7l-140.9-131.3
				c-26.2-24.4-56.3-54.5-83.8-77c32-10.2,67.1-19.2,99.9-29l355.6-106.3C1664.2,1782,1743.6,1760.6,1801.7,1738.4z"/>
			<path fill="#44291B" d="M1490.8,1941.3c0.5-0.1,1.1-0.2,1.6-0.2c27.8-2.2,138.9,90.4,163.3,111.6
				c42.8,37.2,163.6,150.2,167.5,207c-5.9-4.1-27-44.5-35.9-56.2c-26.8-35.4-57-68.8-88.6-99.8c-42-41.1-87-79.1-134.5-113.6
				c-14.8-10.6-29.4-20.8-44.8-30.5C1512.1,1955.1,1495.2,1947.7,1490.8,1941.3z"/>
			<path fill="#44291B" d="M1423.2,1961.3c0.4,0,0.8,0.1,1.1,0.1c44.4,5.3,183.2,123.9,216.9,156.5c28.6,27.4,55.1,56.8,79.3,88.2
				c9.8,12.8,49.1,65.3,47.3,78.6c-3.6-0.8-7.1-1.3-9.2-4.5c-6.2-9.7-12.2-20.6-18.2-30.4c-12.4-20.4-24.3-37.2-39.6-55.3
				c-63.7-75.8-137.4-139.7-219.1-195.4c-13.3-9.1-26.8-17.3-40.6-25.5c-6.5-3.8-12.7-5.4-18.4-9.7L1423.2,1961.3z"/>
			<path fill="#44291B" d="M1558.1,1920.4c10.2-0.9,26.8,9.8,35.2,15.2c68.2,43.2,131.8,98.2,188.2,155.7
				c22.1,22.5,97.7,108.9,97.3,137.3c-6.6-1.6-21.7-28.7-26.9-36.6c-61.5-93.4-148.1-167.9-237.7-233.4
				c-16.2-11.8-32.4-23.3-50.6-31.8C1559.5,1924.7,1559.1,1924.2,1558.1,1920.4z"/>
			<path fill="#44291B" d="M1628.6,1901.7c28.2,0.6,152.4,106.9,177,130.6c29.2,28.2,128.2,135.1,128.7,174.3
				c-6.2-4.5-8.4-10.2-12.6-17c-19.9-32.7-42.4-63.8-67.2-93c-42.7-50.4-89-91.1-140.5-132c-15.2-12.2-30.9-23.8-47.1-34.7
				C1658.8,1924.6,1630.7,1908.3,1628.6,1901.7z"/>
			<path fill="#44291B" d="M1699.2,1884.3c11.4-0.1,32.5,15.7,42.3,22.5c73.4,51.1,139.5,112,196.2,181.1
				c12.5,15.5,50.4,67.9,48.3,87.2c-5.3-3.1-21.3-32.8-26.3-40.4c-12-18.7-25.1-36.8-39.1-54.1c-60.9-75.9-140.7-138.5-220.8-192.8
				C1699.7,1886.6,1699.4,1885.5,1699.2,1884.3z"/>
			<path fill="#44291B" d="M1758.2,1864.5c11.6-1.4,28.2,13.2,37.9,19.5c30.7,20,68.1,47,94.5,71.8
				c36.7,34.5,144.1,139.8,150.3,186.4c-7.7-2.7-21.4-27.7-27-36.2c-11.1-16.5-23-32.5-35.7-47.8c-40.7-48.6-86.4-92.8-136.2-131.9
				C1828.1,1915.5,1763,1870.5,1758.2,1864.5z"/>
			<path fill="#44291B" d="M1828.9,1849.5c9.8,0.1,25.4,12.6,34,18.3c58.6,39.3,113.8,86.5,160.4,139.5
				c17,19.4,68.1,79.6,66.5,103.5c-5.1-1.7-14.7-19-18.2-24.9c-13.2-22.1-27.4-41.3-44.1-60.8c-42.2-50-90.4-94.7-143.4-133
				C1873.8,1884.5,1832.1,1857.6,1828.9,1849.5z"/>
			<path fill="#44291B" d="M1443.4,2031.5c9.4-0.3,52,33.3,61.9,41.5c29.4,24.4,57.9,49.8,85.5,76.1
				c22.5,21.9,109.3,114.4,112,142.9c-7.3-4.5-32.1-40.9-39.5-50.5c-11.2-14.2-22.8-28.1-34.8-41.7
				c-53.7-60.8-118.9-117.4-184.5-165.1C1443.8,2033.6,1443.6,2032.5,1443.4,2031.5z"/>
			<path fill="#FFFFFF" d="M2251.9,2452.3c3,1.4,22.5,20.7,26.8,24.6l89.6,81.7l308.3,278.9c49.5,44.7,105.1,91.5,152.8,137
				c-16.5,9-41.4,19.9-58.8,26.1l-220.8-200l-231.9,111.2c-36.9,17.9-85.4,39.7-120,59.3c-3.4,9.9-6.8,19.9-10,29.8
				c26.1,23.8,52.1,47.7,77.8,71.8c47.2,43.6,108.2,95.9,152.2,141.9c-21,12.8-35.8,20.3-57.7,30.9
				c-140.2-127.1-278.7-256-415.4-386.9l-144.1-135.4c-21.3-20.1-50.4-45.6-69.8-66.2c118.2-44.2,235.9-90,352.9-137.5
				C2137.3,2498.2,2198.2,2471.4,2251.9,2452.3z"/>
			<path fill="#194E36" d="M2365.1,2765.8c-11.5,11.7-99.9,47.7-120.4,56.2l-107.7,38.6L1967.1,2621l49.3-17
				c18.5-4.5,42.2-13.3,60.7-19.6c26-8.8,52.2-17,78.6-24.4c7.1,3.5,190.2,179.9,209.5,201
				C2366.3,2762.3,2365.6,2763.7,2365.1,2765.8z"/>
			<path fill="#FFFFFF" d="M2354.1,2763c-12.8,8.1-34.4,16.7-48.8,22.9c-20.7,8.8-41.3,17.8-61.9,26.9l-102.7,32.5l-153-218.2
				l62.3-24.1l0,0c33.5-12.5,90.2-28.8,101.8-31.7C2161.1,2573.2,2332.8,2741.2,2354.1,2763z"/>
			<path fill="#194E36" d="M2095.4,2628.7c9.6,2.5,20,9.1,29.5,13.2c14.2,6.1,29.3,12,43.4,18.1c8.1,3.5,20.4,14,23.9,22
				c7.1,16.4,25.8,54.8,27.1,70.8c-12.7-3.7-77.1-32.1-87.9-41.4C2122.8,2703.8,2096.1,2641.1,2095.4,2628.7z"/>
			<path fill="#FFFFFF" d="M2111.1,2646.8c16.1,5.3,48,17.8,61.4,27.3c13.1,9.3,24.7,45.6,30.6,61.3
				C2127,2703.7,2142.6,2719.6,2111.1,2646.8z"/>
			<path fill="#FFFFFF" d="M946.8,2035c8.1,3,115.9,96.3,133.4,111.4c94.1,81,191.6,156,288.4,233.6
				c93.9,75.7,186.9,152.6,278.8,230.7c11.5-5.3,34.1-19.4,46.5-26.3l122.2-68.8l367.6-202.4l97.8-53.7
				c25.4-14.2,52.2-30.9,79.1-41.7c23,32.5,12.1,51.9-6.5,81.8c-43.2,21.7-92,48.8-134.4,71.8c-70.5,37.4-140.5,75.6-210.2,114.5
				l-133.2,74.4c-52.5,28.8-113.8,61.5-164.5,93.3c66,63.8,134.9,126.2,201.9,189.1c117.5,110.3,235.1,224.9,354.4,333
				c22.9,22,47.5,44.1,70.9,65.8c-15.1-2-29.4-6.2-44.3-9.6c-30.8-7-61-15.1-92.2-20.4c-20.7-20.5-50.6-45.7-72.8-66.7l-174-163.9
				l-309.2-289.2c-14.9,5.8-36.3,18.6-51,26.7c-26,14.5-52.1,28.9-78.3,43.1l-301.4,164.9l-74.2,40.1c-17.1,9.4-37.4,21.3-54.9,29.4
				c-29.5-4.5-73.3-14.3-102.7-21.6c43.6-27.4,93.9-53.6,139-78.3l147.1-82l188.6-105.4c38.3-21.9,77-43.1,116-63.6
				c-16.7-14.5-39.5-31.7-57.1-45.8l-106.2-85.7l-335.8-275.1l-97-79.5c-16.5-13.5-45.1-33.4-56.4-49.8
				C902.5,2080.3,922.3,2050,946.8,2035z"/>
			<path fill="#FFFFFF" d="M2877.1,1856c1.6,0,3,0.4,4.2,1.6c36.2,34.5,77.7,63.8,113.6,98.5c-65.4,20.4-133.4,46.1-198.6,68.6
				l-446.2,155.9l-14.8,4.8c-30.8-39.3-70.3-78.6-98.9-118.8c63.9-32.6,129.4-61.6,196.5-87
				C2579.7,1925.4,2728.2,1899.2,2877.1,1856z"/>
			<path fill="#4D3229" d="M2887.7,1875.1l1.1,0c-16.4,7.1-37.7,11.2-55,16.1c-52.7,15.1-106.5,25.8-159,41.6
				c-57.4,18-114.4,37.3-171,57.9c-75.7,27-145.1,52.6-219.8,81.8l-2.2-0.2l0.6-1.2c128-54.4,258.9-101.4,392.2-140.9
				c45.3-13.2,90.6-22.6,136.1-34.6C2836.3,1888.8,2862,1881.4,2887.7,1875.1z"/>
			<path fill="#241C15" d="M2909.3,1923.4l0.9,1.7c-139.8,53.9-280.8,104.7-422.9,152.2l-98.1,33.6c-18.7,6.6-39.1,15.5-58.6,19.7
				c7.3-4,51.9-19.8,61.8-23.5c62.5-22.7,125.2-44.6,188.3-65.7C2691.7,2003.8,2799.3,1963.6,2909.3,1923.4z"/>
			<path fill="#241C15" d="M2922.1,1947.9l1.3,0.1c-0.3,0.3-227,85.6-246.9,92.5l-179.1,60.9c-48.7,16.1-95.2,30.5-143.5,47.9
				l-1.4,0.4c3.6-6.5,312.7-109.3,341.9-119.1C2766.1,2006.7,2850.9,1970.7,2922.1,1947.9z"/>
			<path fill="#241C15" d="M2833.9,1902.9l0.6,1c-45.2,17.3-90,30.5-135.8,45.9c-81.5,27.7-162.8,55.9-243.9,84.8
				c-18.2,6.6-154.1,58.6-157.8,58.2c89.7-37.4,180.6-71.7,272.6-102.8C2657.5,1960.1,2746.8,1932.9,2833.9,1902.9z"/>
			<path fill="#241C15" d="M2891.3,1907.7l1.5,1.2c-53.6,15.7-117.1,40.1-170.2,58.8L2430.2,2071c-11.7,4.2-116.8,43.7-120.2,43.3
				c5.6-3.3,10.7-4.1,16.6-6.6c44.5-18.8,91-35.6,136.4-52C2605.2,2004.8,2748,1955.5,2891.3,1907.7z"/>
			<path fill="#C7C0B2" d="M2909.3,1923.4c10.5-4.5,17.3-7.6,28.5-10.4c-7.8,3.6-20,9.9-27.6,12L2909.3,1923.4z"/>
			<path fill="#C7C0B2" d="M2833.9,1902.9c5.3-2.5,8.8-4.7,14.7-5.3l0.5,0.5l-0.7,0.8l-1.3-1.1l0.7,1.6c-4,1.8-8.8,3.7-13.1,4.5
				L2833.9,1902.9z"/>
			<path fill="#C7C0B2" d="M2891.3,1907.7c5.5-2,7.1-2.9,12.8-3l-0.3,1.2c-4.6,1.6-6.2,2.2-10.9,3.1L2891.3,1907.7z"/>
			<path fill="#FFFFFF" d="M2229.1,2070c3.6,3.7,25.6,31.4,29.6,36.5c19.1,24.8,48.5,55.6,64.6,80.9c-24.2,17-70.6,40.4-98.2,55.3
				l-131.2,72.6l-374.5,209.5c-20.2,11.2-39.1,23.6-59.2,35c22.9-52,46.7-105.1,83.4-149c34.9-41.8,80.2-75,122.4-108.9
				c30.6-24.6,65.4-43.9,98.4-65.2l126-80.9C2135.8,2127.3,2181.6,2095.1,2229.1,2070z"/>
			<path fill="#44291B" d="M2240.2,2159.5l0.9,2.3c-99.9,59.7-200.2,125.3-300.4,185.3l-135.4,80.6c-11.6,6.9-55.9,32.3-63.5,38.3
				l-1.7-1c11.8-6.2,32.2-20,44.1-27.5l79.8-49.1l253.7-154.8C2158.6,2208.7,2198.1,2183.1,2240.2,2159.5z"/>
			<path fill="#44291B" d="M2235.4,2128.2l1,0.2c-2.9,5.3-98.9,62.7-112.2,70.9L1861,2364.9c-24,15.2-47.3,31.7-71.3,46.8
				c-10,6.3-18.5,13.1-29.2,18.5l-0.7,0.1l-0.1-1c4.4-4.3,15.6-9.9,22-14.5c37.1-26.9,75.2-52.5,114.1-76.7
				c31.1-19.7,61.2-41.6,92.7-60.9c22.6-14.9,47.1-27.6,69.7-42.3C2116.2,2197.4,2176.4,2163.9,2235.4,2128.2z"/>
			<path fill="#44291B" d="M1804.8,2450.9c32.8-18.1,64.1-37.4,96.4-56c57.5-32.2,114.5-65.1,171.3-98.6
				c28-16.6,189.3-117.1,211.2-122l0.1,1c-8.8,5.9-23.1,13-33,18.7c-23.2,13.3-46.4,26.9-69.3,40.6
				c-73.9,44.5-150.9,92.8-226.1,134.7c-33.9,18.5-67.7,37.3-101.3,56.4c-14.3,8-33.9,18.3-47.2,26.8L1804.8,2450.9z"/>
			<path fill="#4D3229" d="M2217.2,2105.9l0.5,1.3c-6.4,5.3-24.3,15.8-32.5,21.1c-26.6,17.4-53.5,34.3-80.8,50.7
				c-45.1,27.7-88.6,57.6-133.6,85.4c-12.8,7.9-25.4,16-37.9,24.3l-0.2-1.2c15-12.5,67.8-44.3,86.7-56.5
				C2083.6,2189.6,2151.2,2144,2217.2,2105.9z"/>
			<path fill="#726D61" d="M1804.8,2450.9l2.1,1.7c-7,4.9-87.8,51.3-93.2,53.1C1723.8,2495,1787.6,2460.5,1804.8,2450.9z"/>
			<path fill="#C7C0B2" d="M1924.5,2291.9c1.6,0.5,0.8,0,1.8,1.8c-2.6,3.3-14.9,12-19.6,16.1l-1.8-0.3
				C1907,2304.7,1919.8,2295.5,1924.5,2291.9z"/>
			<path fill="#726D61" d="M2240.2,2159.5c3.7-2.4,9.5-6.4,13.2-8.3l1.4,0.8l1.4-1.2c-5,5.1-9,7.3-15,11.1L2240.2,2159.5z"/>
			<path fill="#C7C0B2" d="M1740,2465l1.7,1c-4.1,3.2-2,2.8-6.2,2.9C1736.5,2465.8,1735.8,2467.3,1740,2465z"/>
			<path fill="#FFFFFF" d="M1147.2,1953.3c6.8,2.5,489.6,457.7,542,508.5c-17.8,33.9-30.1,64.4-42.7,100.8l-17.4-15.4
				c-39.2-35.8-80.7-69-120.2-104.5c-150.5-134.3-297.8-272.2-441.7-413.6c12-11.8,25-23,37.1-34.8
				C1118.6,1980.6,1132.4,1966.6,1147.2,1953.3z"/>
			<path fill="#241C15" d="M1114.9,2028.7c8.5,4,135.4,137.4,152.2,153.8c95.3,93,192.9,181.9,292,270.9
				c27.1,24.3,57.5,49.8,83.7,74.5c-12-4-114.7-98.9-128.5-111.3c-80.2-72.3-161.9-145.7-238.8-221.6
				C1221.1,2140.6,1167.5,2085.1,1114.9,2028.7z"/>
			<path fill="#241C15" d="M1142.3,1983.3c3.6,1.6,34.9,31,39.7,35.3c82.7,74.4,161.9,152.3,243,228.3l133.2,123.9
				c29.4,27,76.6,69.5,102.8,98.9c-3.9-1.1-86.2-79.2-94.4-86.7l-302.9-285.3c-22.4-21-44.9-41.9-67.6-62.6
				C1185.6,2025.5,1149.5,1993.9,1142.3,1983.3z"/>
			<path fill="#241C15" d="M1176.2,2061c87.2,85.8,175,170.9,263.5,255.4c66.4,62.1,134.7,122.1,200.7,184.5l-2.2,1.1l-181.2-165.8
				c-75.6-71.3-150.4-143.4-224.5-216.3c-3.3-2.6-3.7-3.3-6.3-6.5c-16.4-15.4-34.2-33.7-50.2-49.6L1176.2,2061z"/>
			<path fill="#726D61" d="M1226.1,2113.4c3.4,2.8,3.6,2.8,6.3,6.5C1229.1,2117.3,1228.7,2116.6,1226.1,2113.4z"/>
			<path fill="#241C15" d="M1222.7,2078c91.4,90.6,184,180.1,277.6,268.5l107.8,99.4c13.7,12.7,35,31.2,47.3,44.4
				c-9-4.2-69.2-60.7-80.9-71.5c-74-67.5-146.8-136.3-218.5-206.2l-134.6-132.5L1222.7,2078z"/>
			<path fill="#C7C0B2" d="M1153.6,2041.9c-11.1-7.4-24.9-25-34-35.5c6.2,3.8,25.2,22.7,29.3,28.8L1153.6,2041.9z"/>
			<path fill="#726D61" d="M1190.8,2045.9l31.9,32l-1.3,2.2c-10-9.6-20.7-21.3-30.7-31.3L1190.8,2045.9z"/>
			<path fill="#726D61" d="M1148.9,2035.2c8.1,6.2,20,18.3,27.3,25.8l-0.3,2.8c-6.9-6.2-15.6-15.3-22.3-21.9L1148.9,2035.2z"/>
			<path fill="#C7C0B2" d="M1190.7,2048.8c-5-4.5-17.5-15.2-20.3-21c8,6.5,13.2,10.9,20.4,18.2L1190.7,2048.8z"/>
			<path fill="#908B7C" d="M1640.4,2500.9c3.2,2.8,6.6,5,7.9,8.8c-3.6-0.5-7.5-4.9-10.1-7.7L1640.4,2500.9z"/>
			<path fill="#C7C0B2" d="M1159.5,2020.1c5.2,1.5,3.2,0.1,6.7,3.8c-1.4,0.7-0.5,0.3-3.1,0.6L1159.5,2020.1z"/>
			<path fill="#FFFFFF" d="M2495.1,2323.8c-22.1,13.2-46.9,23.3-69.9,35.1c-40.4,20.6-79.7,42.4-121.1,60.9
				c-43.1,19.2-511.5,208.7-525.3,205.4c20.3-9.1,43.2-23.5,62.8-34.3c42.2-23,84.1-46.3,125.8-70.1
				c68.5-38.4,137.3-76.2,206.4-113.5c80.3-43.9,162.7-92,248.2-124.3c27.9-10.5,56-21,83.7-32l321.3-123.7
				c47.8-18,94.5-33.4,142.3-52.4l1.3,2.4c-28.1,11.2-77.8,40-106.2,54.6c-70.6,36.2-140.8,73.2-210.6,110.9
				c-28.5,15.1-57,30.1-85.7,44.9c-21,10.9-42.5,21.1-61.7,34.9c-4.1-5.6-6.7-10.8-13.5-12c-6.1,1.6-19.1,7.5-25.6,10.3
				c-17,7.4-34.1,14.6-51.2,21.6c-57.3,23.2-115.2,45.3-172.4,68.8c-5.2,2.1-10.6,4.1-14.3,8.4c0.4,3.4,0.2,3.5,2.2,6.2
				c7.5,1.2,19.1-6.2,26.4-9.2l40.5-16.3l116.7-46.1C2439.6,2344.3,2470.5,2330.3,2495.1,2323.8z"/>
			<path fill="#FFFFFF" d="M3061.2,1972.1c8.4-0.2,16.2,6.3,20,13.6c7.4,14.1,2.4,35.5-13.3,41.9c-21.7,9-44.8,16.2-67,24.5
				c-51.2,19.7-102.7,38.9-154.3,57.6c-111.9,41.7-223.5,84.4-334.7,128.1c-42.4,16.5-85.6,32-127.7,49c-3.9,1.5-5.2,1.8-9.2,2.7
				c-0.3-5.1,5.4-15.2,7.1-22.4c5.2-22.2-1.4-33.4-11.8-51.5c27.5-6.9,82.4-27.8,109.9-37.7l156-55l169.1-60.5
				C2890.9,2032.6,2976,2004.1,3061.2,1972.1z"/>
			<path fill="#FFFFFF" d="M1036.9,2009.5l0.9,0.9c-6.9,7.1-14.2,13.9-18.5,22.8c13.1,13,33,29.6,47.1,42.5l97.5,89.9
				c81.9,75.8,167.3,156.7,251.3,229.4c34.1,29.4,68.6,58.5,103.2,87.3c31.3,25.8,63.4,50.6,94,77.2c10,8.7,24,17.9,30.9,28.5
				l-0.3,1.3c-7.4-3.6-23.5-18.7-30.6-25c-97.8-80.7-196.4-160.5-295.8-239.2c-36.1-28.6-71.2-54.8-107.3-84.4
				c-49.7-40.7-99-81.8-147.9-123.4c-32.9-28.1-68.3-60.9-103.6-85.3C984.2,2023.8,1009.7,2018.7,1036.9,2009.5z"/>
			<path fill="#FFFFFF" d="M2546,2813.3c5.7,0.9,31.8,26.8,38.3,32.7c24.9,22.2,49.6,44.5,74.2,67.1c28.5,26.1,61.1,53.8,87.8,80.9
				c-10.6-2.9-23.2-5.3-34.1-7.7c-20.2-5.4-44.8-12.7-65-16.3l-92.9-85.3c-16.5-15.3-34.8-31.3-50.7-47.1
				C2514.5,2830.3,2533.4,2820.9,2546,2813.3z"/>
			<path fill="#F1ECDF" d="M2333.2,2205.9c3.1,1.7,2.1,0.4,3.5,3.6c-4.3,6.1-111.9,62-127.5,70.8l-400.3,223.1
				c-27.8,15.4-55.6,30.8-83.1,46.6c-24.4,14-49.2,30.3-74.5,42.6l-1.4,0.3l-0.8-1.4c9.6-13.1,177-104.2,204.7-119.8
				C2012.7,2381.5,2172.5,2292.9,2333.2,2205.9z"/>
			<path fill="#F1ECDF" d="M3042.2,1961.5l2.7-0.2l0.7,1c-0.3,0.3-89.1,31.4-97.3,34.3l-386.9,135.5
				c-70.8,24.8-141.2,50.9-212.6,74.4c-1.6,0.6-1.6,0.2-3.6-0.1l-0.6-1.8c2.7-3.8,11.3-6.3,15.8-7.9l345.9-121.8
				c36.6-12.7,74.2-24.1,110.5-37l147.7-52C2983.7,1979.4,3023.8,1963.8,3042.2,1961.5z"/>
			<path fill="#FFFFFF" d="M1137.4,1938.5c2.4,1.5,1.5,0.5,2.5,3.3c-6.2,7.5-13.7,12.9-20.3,19.4c-19.3,19.2-57,47.3-73.2,67.3
				c21.4,26.9,64.9,61.6,90.5,87c117.6,116.3,241.6,226.1,364.5,336.7c28.9,26,60.3,50.9,88.7,77.1c-10.5-4.5-88.1-73.9-101.1-85.4
				c-153.3-134.3-303.3-272.3-449.9-413.8l65.2-61.8C1113.7,1959.6,1127.5,1945.9,1137.4,1938.5z"/>
			<path fill="#C7C0B2" d="M2989.4,2067.6c-5.7,4.1-12,7.3-18.6,9.6l-1.3-2.4C2976.8,2071.8,2981.8,2069.8,2989.4,2067.6z"/>
		</g>
	</g>
</g>
<g id="Layer_2">
</g>
</svg>
